<?xml version="1.0" encoding="UTF-8"?>
<svg id="Layer_2" data-name="Layer 2" xmlns="http://www.w3.org/2000/svg" viewBox="0 0 153.07 151.69">
  <defs>
    <style>
      .cls-1, .cls-2 {
        stroke: #000;
      }

      .cls-1, .cls-2, .cls-3, .cls-4, .cls-5, .cls-6, .cls-7, .cls-8 {
        fill: none;
        stroke-linecap: round;
        stroke-linejoin: round;
      }

      .cls-1, .cls-4, .cls-5, .cls-7 {
        stroke-width: 5px;
      }

      .cls-2, .cls-3, .cls-6, .cls-8 {
        stroke-width: 3px;
      }

      .cls-9 {
        fill: #00abb0;
      }

      .cls-9, .cls-10, .cls-11, .cls-12 {
        fill-rule: evenodd;
      }

      .cls-3, .cls-4 {
        stroke: #ff251e;
      }

      .cls-10, .cls-13 {
        fill: #dcdcdc;
      }

      .cls-11, .cls-14 {
        fill: #ffc272;
      }

      .cls-15 {
        fill: #fff;
      }

      .cls-5 {
        stroke: #003c5a;
      }

      .cls-12 {
        fill: #ffcd06;
      }

      .cls-6, .cls-7 {
        stroke: #373737;
      }

      .cls-8 {
        stroke: #007d9f;
      }
    </style>
  </defs>
  <g id="Layer_1-2" data-name="Layer 1">
    <path class="cls-11" d="M85.77,75.42c20.31,0,36.79,16.49,36.79,36.79v.19c0,20.31-16.49,36.79-36.79,36.79h-20.57c-19.99,0-36.28-15.98-36.78-35.86h25.45v-36.13c3.57-1.16,7.38-1.78,11.33-1.78h20.57Z"/>
    <path class="cls-1" d="M85.77,75.42c20.31,0,36.79,16.49,36.79,36.79v.19c0,20.31-16.49,36.79-36.79,36.79h-20.57c-19.99,0-36.28-15.98-36.78-35.86h25.45v-36.13c3.57-1.16,7.38-1.78,11.33-1.78h20.57Z"/>
    <path class="cls-10" d="M28.85,10.22c-1.52-2.63-4.88-3.53-7.51-2.01l-9.53,5.5c-2.63,1.52-3.53,4.88-2.01,7.51l35.85,62.09c1.52,2.63,4.88,3.53,7.51,2.01l9.53-5.5c2.63-1.52,3.53-4.88,2.01-7.51L28.85,10.22Z"/>
    <path class="cls-7" d="M28.85,10.22c-1.52-2.63-4.88-3.53-7.51-2.01l-9.53,5.5c-2.63,1.52-3.53,4.88-2.01,7.51l35.85,62.09c1.52,2.63,4.88,3.53,7.51,2.01l9.53-5.5c2.63-1.52,3.53-4.88,2.01-7.51L28.85,10.22Z"/>
    <path class="cls-10" d="M50.34,74.37L90.25,5.25c1.52-2.63,4.88-3.53,7.51-2.01l9.53,5.5c2.63,1.52,3.53,4.88,2.01,7.51l-47.91,82.97c-1.52,2.63-4.88,3.53-7.51,2.01l-1.99-1.15v-25.72h-1.54Z"/>
    <path class="cls-7" d="M50.34,74.37L90.25,5.25c1.52-2.63,4.88-3.53,7.51-2.01l9.53,5.5c2.63,1.52,3.53,4.88,2.01,7.51l-47.91,82.97c-1.52,2.63-4.88,3.53-7.51,2.01l-1.99-1.15v-25.72h-1.54Z"/>
    <rect class="cls-14" x="72.76" y="60.99" width="27.13" height="57" rx="13.53" ry="13.53"/>
    <rect class="cls-1" x="72.76" y="60.99" width="27.13" height="57" rx="13.53" ry="13.53"/>
    <rect class="cls-15" x="100.08" y="71.56" width="22.69" height="47.68" rx="11.32" ry="11.32"/>
    <rect class="cls-8" x="100.08" y="71.56" width="22.69" height="47.68" rx="11.32" ry="11.32"/>
    <rect class="cls-14" x="100.08" y="71.56" width="22.69" height="47.68" rx="11.32" ry="11.32"/>
    <rect class="cls-1" x="100.08" y="71.56" width="22.69" height="47.68" rx="11.32" ry="11.32"/>
    <path class="cls-2" d="M69.16,115.01s-.99,17.2-21.51,17.64"/>
    <path class="cls-12" d="M140.77,44.21c-13.68,0-18.24-18.24-18.24-18.24,0,13.31-18.24,18.24-18.24,18.24,12.17,0,18.24,18.24,18.24,18.24,0-12.69,18.24-18.24,18.24-18.24Z"/>
    <path class="cls-4" d="M140.77,44.21c-13.68,0-18.24-18.24-18.24-18.24,0,13.31-18.24,18.24-18.24,18.24,12.17,0,18.24,18.24,18.24,18.24,0-12.69,18.24-18.24,18.24-18.24Z"/>
    <path class="cls-12" d="M151.57,65.13c-7.56-1.13-8.58-11.6-8.58-11.6-1.1,7.36-11.6,8.58-11.6,8.58,6.73,1.01,8.57,11.6,8.57,11.6,1.05-7.02,11.6-8.57,11.6-8.57Z"/>
    <path class="cls-3" d="M151.57,65.13c-7.56-1.13-8.58-11.6-8.58-11.6-1.1,7.36-11.6,8.58-11.6,8.58,6.73,1.01,8.57,11.6,8.57,11.6,1.05-7.02,11.6-8.57,11.6-8.57Z"/>
    <line class="cls-13" x1="98.69" y1="5.26" x2="59.33" y2="73.65"/>
    <line class="cls-6" x1="98.69" y1="5.26" x2="59.33" y2="73.65"/>
    <path class="cls-9" d="M33.38,77.91c8.52,0,15.44,6.92,15.44,15.44s-6.92,15.44-15.44,15.44-15.44-6.92-15.44-15.44,6.92-15.44,15.44-15.44ZM33.38,62.47c4.84,0,9.42,1.12,13.5,3.1,10.29,5.01,17.38,15.57,17.38,27.78,0,17.04-13.84,30.88-30.88,30.88S2.5,110.39,2.5,93.35s13.84-30.88,30.88-30.88Z"/>
    <path class="cls-5" d="M33.38,77.91c8.52,0,15.44,6.92,15.44,15.44s-6.92,15.44-15.44,15.44-15.44-6.92-15.44-15.44,6.92-15.44,15.44-15.44ZM33.38,62.47c4.84,0,9.42,1.12,13.5,3.1,10.29,5.01,17.38,15.57,17.38,27.78,0,17.04-13.84,30.88-30.88,30.88S2.5,110.39,2.5,93.35s13.84-30.88,30.88-30.88Z"/>
  </g>
</svg>